<svg xmlns="http://www.w3.org/2000/svg" viewBox="0 0 511.62 432.96"><title>Asset 1</title><g id="Layer_2" data-name="Layer 2"><g id="Layer_1-2" data-name="Layer 1"><path d="M115.83,154c-8.64,21.59,7.57,43.86,25.68,54.4,20.58,12,48,13.95,70.25,5.57a78.83,78.83,0,0,0,45.78-45.19c8.46-21.91,4.55-47.25-15-61.68-16.64-12.32-39.8-15.54-59.9-17.29-11.05-1-22.52-.38-32.65,4.56-11.23,5.48-17.82,16.23-23.81,26.69-6.58,11.48-12.91,23.63-14.62,36.92a48.33,48.33,0,0,0,.85,17.57c1.44,6,3.38,10.34.33,16.2-2.61,5-6.34,9.34-9,14.31a61.79,61.79,0,0,0-5.89,17.65C95.43,236.12,92.46,247.8,87,259.27c-6.3,13.22-14.12,25.64-21.53,38.25q-11.65,19.85-22.66,40.07-22.46,41.3-42.06,84c-2.09,4.55.24,12,6.47,11.29a1069.14,1069.14,0,0,1,219.56-1.73c4.91.47,8.46-5.16,7.23-9.49a396.52,396.52,0,0,1-15.16-100.37c-.08-4.11-.19-8.26-.06-12.38.05-1.51-.06-4.72,1.05-5.92-.43.47-.45-.06.85.74a41.24,41.24,0,0,0,4.34,1.94c3.67,1.68,7.3,3.45,10.91,5.24,14,7,27.75,14.36,42.25,20.23,29.41,11.89,60.46,12.57,90.93,4.22a241.74,241.74,0,0,0,83.26-41.59c24.72-19.28,39.34-45.59,47.68-75.47,8.4-30,14.15-62.79,10.37-94-3.84-31.69-19.05-58.28-40.21-81.69C460.05,31.42,449,20.56,436,12.57A86.31,86.31,0,0,0,392,0C359-.5,327.13,13.9,297.64,27.06c-14.12,6.29-30.05,12.16-42.07,22.11C244.05,58.7,241.91,72.27,240,86.24c-.89,6.49-2,12.93-5.52,18.57-5.11,8.23,7.87,15.77,12.95,7.57,7.28-11.72,6.33-25.25,9.64-38.15C260.71,60.08,273.73,54.8,285.83,49c15.05-7.24,30.34-14.05,45.9-20.15,14.34-5.63,29.21-10.67,44.52-12.85,14.75-2.1,30.45-1.23,44.12,5.15,13.23,6.17,24.09,16.11,34.07,26.57,20.45,21.4,36.8,46,40.88,75.86,4.12,30.1-1.61,61.8-9.72,90.79-4,14.12-9.18,27.87-17.05,40.3-7.59,12-17.86,22.1-29.3,30.41-24.11,17.5-52.73,31.23-81.83,37.8-14.38,3.24-29.38,4.47-44,2.57s-28.7-7.25-42-13.52S245.2,298.5,231.81,292.4c-6.39-2.91-13.14-6.19-19.84-2.15-5.42,3.25-7.4,9.75-8,15.68-1.55,15.56.25,32.21,1.82,47.72a419.4,419.4,0,0,0,7.66,48q2.67,12.09,6.08,24l7.23-9.5A1069.14,1069.14,0,0,0,7.22,417.92L13.7,429.2A1407.87,1407.87,0,0,1,83.16,297.09c11.74-19.73,23.49-39.88,27.93-62.68a143.57,143.57,0,0,1,3.22-14.95c1.55-5.06,4.46-9.29,7.38-13.65,6.35-9.46,9.72-18.43,6.51-29.79-3.3-11.64-1.66-21.93,3.34-32.89,4.37-9.58,9.65-20.14,16.45-28.24,13.14-15.63,37.22-10.54,54.78-7.18,16.26,3.1,36.36,8.84,42.29,26.35,6.32,18.67-3.5,39.7-17,52.54-17.08,16.2-42,20.94-64.41,14.74-17.72-4.89-41.86-22-33.32-43.35,1.52-3.79-1.66-8.2-5.24-9.23-4.26-1.22-7.73,1.5-9.23,5.24Z"/></g></g></svg>